# xmcd
#
# Track frame offsets: 
#        150
#        20758
#        32439
#        43282
#        61632
#        86065
#        107069
#        121630
#        136304
#        159737
#
# Disc length: 2350 seconds
#
# Revision: 0
# Processed by: cddbd v1.5.2PL0 Copyright (c) Steve Scherf et al.
# Submitted via: ExactAudioCopy v0.95b3
#
DISCID=7c092c0a
DTITLE=Morning Glory  - Two Suns Worth  FLAC
DYEAR=1900
DGENRE=
TTITLE0=Need Someone
TTITLE1=I Cry
TTITLE2=Hey Little Girl
TTITLE3=Stone Good Day
TTITLE4=Even When I'm Up I'm Down
TTITLE5=Jelly Gas Flame
TTITLE6=I See A Light
TTITLE7=Live For Today
TTITLE8=Point Of No Return
TTITLE9=So Glad Being Here
EXTD=
EXTT0=
EXTT1=
EXTT2=
EXTT3=
EXTT4=
EXTT5=
EXTT6=
EXTT7=
EXTT8=
EXTT9=
PLAYORDER=
